<svg width="14" height="14" viewBox="0 0 14 14" fill="none" xmlns="http://www.w3.org/2000/svg">
<path d="M3.62002 8.7733C3.05576 9.33584 2.21518 9.49716 1.48902 9.18226C0.762866 8.86737 0.293602 8.13803 0.299369 7.3333C0.299854 6.53162 0.769671 5.80769 1.49305 5.494C2.21643 5.18031 3.05358 5.33747 3.62002 5.8933L9.46386 2.9133C9.34441 1.94711 9.92468 1.03363 10.8381 0.749889C11.7515 0.46615 12.7326 0.894645 13.1615 1.7647C13.5904 2.63475 13.3426 3.69341 12.5745 4.27194C11.8064 4.85047 10.7413 4.78067 10.0522 4.10663L4.20833 7.08663C4.22809 7.25046 4.22809 7.41614 4.20833 7.57997L10.0522 10.56C10.6164 9.99742 11.457 9.8361 12.1832 10.151C12.9093 10.4659 13.3786 11.1952 13.3728 12C13.3668 12.74 12.9605 13.4161 12.3168 13.7576C11.673 14.0991 10.897 14.0501 10.2994 13.6303C9.70185 13.2105 9.38043 12.4884 9.46386 11.7533L3.62002 8.7733Z" fill="white"/>
</svg>
